<?xml version="1.0" encoding="UTF-8"?>
<svg xmlns="http://www.w3.org/2000/svg" xmlns:xlink="http://www.w3.org/1999/xlink" width="12px" height="12px" viewBox="0 0 12 12" version="1.1">
<g id="surface1">
<path style=" stroke:none;fill-rule:nonzero;fill:rgb(0%,0%,0%);fill-opacity:1;" d="M 8.847656 5.5625 C 8.792969 5.535156 8.742188 5.511719 8.6875 5.492188 C 8.597656 3.785156 7.664062 2.804688 6.097656 2.796875 C 6.089844 2.796875 6.082031 2.796875 6.078125 2.796875 C 5.140625 2.796875 4.359375 3.195312 3.882812 3.921875 L 4.742188 4.515625 C 5.101562 3.972656 5.664062 3.855469 6.078125 3.855469 C 6.082031 3.855469 6.085938 3.855469 6.089844 3.855469 C 6.605469 3.859375 6.996094 4.007812 7.246094 4.300781 C 7.429688 4.515625 7.554688 4.808594 7.613281 5.179688 C 7.15625 5.101562 6.664062 5.078125 6.132812 5.109375 C 4.644531 5.195312 3.6875 6.0625 3.753906 7.269531 C 3.785156 7.878906 4.089844 8.40625 4.609375 8.75 C 5.050781 9.042969 5.617188 9.183594 6.207031 9.152344 C 6.988281 9.109375 7.597656 8.8125 8.023438 8.269531 C 8.347656 7.855469 8.550781 7.320312 8.640625 6.648438 C 9.011719 6.871094 9.289062 7.167969 9.441406 7.519531 C 9.699219 8.121094 9.714844 9.113281 8.90625 9.917969 C 8.199219 10.625 7.347656 10.933594 6.0625 10.941406 C 4.636719 10.929688 3.558594 10.472656 2.859375 9.582031 C 2.203125 8.746094 1.863281 7.542969 1.851562 6 C 1.863281 4.457031 2.203125 3.253906 2.859375 2.417969 C 3.558594 1.527344 4.636719 1.070312 6.0625 1.058594 C 7.5 1.070312 8.597656 1.527344 9.324219 2.425781 C 9.679688 2.863281 9.949219 3.414062 10.128906 4.058594 L 11.136719 3.789062 C 10.921875 2.996094 10.582031 2.316406 10.121094 1.75 C 9.191406 0.601562 7.824219 0.0117188 6.066406 0 L 6.058594 0 C 4.304688 0.0117188 2.957031 0.601562 2.050781 1.753906 C 1.242188 2.78125 0.828125 4.207031 0.8125 5.996094 L 0.8125 6.003906 C 0.828125 7.792969 1.242188 9.21875 2.050781 10.246094 C 2.957031 11.398438 4.304688 11.988281 6.058594 12 L 6.066406 12 C 7.625 11.988281 8.726562 11.582031 9.632812 10.675781 C 10.816406 9.492188 10.78125 8.007812 10.390625 7.097656 C 10.109375 6.441406 9.578125 5.914062 8.847656 5.5625 Z M 6.152344 8.09375 C 5.5 8.132812 4.820312 7.839844 4.789062 7.210938 C 4.765625 6.746094 5.121094 6.226562 6.191406 6.164062 C 6.316406 6.15625 6.4375 6.152344 6.554688 6.152344 C 6.945312 6.152344 7.308594 6.191406 7.640625 6.265625 C 7.515625 7.808594 6.792969 8.058594 6.152344 8.09375 Z M 6.152344 8.09375 "/>
</g>
</svg>
